<?xml version="1.0" encoding="UTF-8" standalone="no"?>
<!DOCTYPE svg PUBLIC "-//W3C//DTD SVG 1.1//EN" "http://www.w3.org/Graphics/SVG/1.1/DTD/svg11.dtd">
<svg width="100%" height="100%" viewBox="0 0 320 320" version="1.1" xmlns="http://www.w3.org/2000/svg" xmlns:xlink="http://www.w3.org/1999/xlink" xml:space="preserve" xmlns:serif="http://www.serif.com/" style="fill-rule:evenodd;clip-rule:evenodd;stroke-linejoin:round;stroke-miterlimit:1.5;">
    <g id="Icon" transform="matrix(1.00313,0,0,1.00313,-1.00313,-1.00313)">
        <rect x="1" y="1" width="319" height="319" style="fill:none;"/>
        <g transform="matrix(1.43049,0,0,2.32847,1,1)">
            <path d="M223,68.5C223,106.306 173.039,137 111.5,137C49.961,137 0,106.306 0,68.5C0,30.694 49.961,0 111.5,0C173.039,0 223,30.694 223,68.5Z"/>
        </g>
        <g transform="matrix(0.332236,0.57545,-0.57545,0.332236,135.294,-21.3678)">
            <path d="M250,104C250,107.314 252.686,110 256,110C259.314,110 262,107.314 262,104C262,107.314 259.314,110 256,110C252.686,110 250,107.314 250,104Z" style="fill:none;stroke:black;stroke-width:7.5px;"/>
        </g>
        <g transform="matrix(0.332236,0.57545,-0.57545,0.332236,135.294,-21.3678)">
            <path d="M250,104C250,107.314 252.686,110 256,110C259.314,110 262,107.314 262,104C262,107.314 259.314,110 256,110C252.686,110 250,107.314 250,104Z" style="fill:none;stroke:rgb(0,170,255);stroke-width:3px;"/>
        </g>
        <g id="path3884" transform="matrix(0.996875,0,0,0.996875,1,1)">
            <path d="M156.938,134.75L113.5,113L127.5,141.313L133.938,140.5L126.875,126.375L150.313,138L156.938,134.75Z" style="fill:none;fill-rule:nonzero;stroke:white;stroke-width:1.5px;stroke-linejoin:miter;stroke-miterlimit:4;"/>
        </g>
        <g id="path3886" transform="matrix(0.996875,0,0,0.996875,1,1)">
            <path d="M167.625,132.75L151.563,140.75L150.813,146.688L153.875,146.25L168.625,138.875L167.625,132.75Z" style="fill:none;fill-rule:nonzero;stroke:white;stroke-width:1.5px;stroke-linejoin:miter;stroke-miterlimit:4;"/>
        </g>
        <g id="path3888" transform="matrix(0.996875,0,0,0.996875,1,1)">
            <path d="M145.25,156.375L146.813,153.25L148.625,140.563L143.375,138.063L141.813,149.438L145.25,156.375Z" style="fill:none;fill-rule:nonzero;stroke:white;stroke-width:1.5px;stroke-linejoin:miter;stroke-miterlimit:4;"/>
        </g>
        <g id="path3890" transform="matrix(0.996875,0,0,0.996875,1,1)">
            <path d="M138.875,148.438L139.75,142.688L21,159.75L126.125,174.625L128.688,169.438L60.875,159.75L138.875,148.438Z" style="fill:none;fill-rule:nonzero;stroke:white;stroke-width:1.5px;stroke-linejoin:miter;stroke-miterlimit:4;"/>
        </g>
        <g id="path3978" transform="matrix(0.996875,0,0,0.996875,1,-729.074)">
            <path d="M163.562,917.113L206.999,938.863L192.999,910.551L186.562,911.363L193.624,925.488L170.187,913.863L163.562,917.113Z" style="fill:none;fill-rule:nonzero;stroke:white;stroke-width:1.5px;stroke-linejoin:miter;stroke-miterlimit:4;"/>
        </g>
        <g id="path3980" transform="matrix(0.996875,0,0,0.996875,1,-729.074)">
            <path d="M152.874,919.113L168.937,911.113L169.687,905.176L166.624,905.613L151.874,912.988L152.874,919.113Z" style="fill:none;fill-rule:nonzero;stroke:white;stroke-width:1.5px;stroke-linejoin:miter;stroke-miterlimit:4;"/>
        </g>
        <g id="path3982" transform="matrix(0.996875,0,0,0.996875,1,-729.074)">
            <path d="M175.249,895.488L173.687,898.613L171.874,911.301L177.124,913.801L178.687,902.426L175.249,895.488Z" style="fill:none;fill-rule:nonzero;stroke:white;stroke-width:1.5px;stroke-linejoin:miter;stroke-miterlimit:4;"/>
        </g>
        <g id="path3985" transform="matrix(0.996875,0,0,0.996875,1,-729.074)">
            <path d="M181.624,903.426L180.749,909.176L299.499,892.113L194.374,877.238L191.812,882.426L259.624,892.113L181.624,903.426Z" style="fill:none;fill-rule:nonzero;stroke:white;stroke-width:1.5px;stroke-linejoin:miter;stroke-miterlimit:4;"/>
        </g>
        <g id="path3987" transform="matrix(0.996875,0,0,0.996875,1,-729.074)">
            <path d="M135.249,895.425L113.499,938.862L141.812,924.862L140.999,918.425L126.874,925.487L138.499,902.05L135.249,895.425Z" style="fill:none;fill-rule:nonzero;stroke:white;stroke-width:1.5px;stroke-linejoin:miter;stroke-miterlimit:4;"/>
        </g>
        <g id="path3989" transform="matrix(0.996875,0,0,0.996875,1,-729.074)">
            <path d="M133.249,884.737L141.249,900.8L147.187,901.55L146.749,898.487L139.374,883.737L133.249,884.737Z" style="fill:none;fill-rule:nonzero;stroke:white;stroke-width:1.5px;stroke-linejoin:miter;stroke-miterlimit:4;"/>
        </g>
        <g id="path3991" transform="matrix(0.996875,0,0,0.996875,1,-729.074)">
            <path d="M156.874,907.112L153.749,905.55L141.062,903.737L138.562,908.987L149.937,910.55L156.874,907.112Z" style="fill:none;fill-rule:nonzero;stroke:white;stroke-width:1.5px;stroke-linejoin:miter;stroke-miterlimit:4;"/>
        </g>
        <g id="path3993" transform="matrix(0.996875,0,0,0.996875,1,-729.074)">
            <path d="M148.937,913.487L143.187,912.612L160.249,1031.36L175.124,926.237L169.937,923.675L160.249,991.487L148.937,913.487Z" style="fill:none;fill-rule:nonzero;stroke:white;stroke-width:1.5px;stroke-linejoin:miter;stroke-miterlimit:4;"/>
        </g>
        <g transform="matrix(1.66146,0,0,1.66146,-169.133,-66.1229)">
            <circle cx="256" cy="104" r="6" style="fill:none;stroke:rgb(0,170,255);stroke-width:1.2px;stroke-linecap:round;"/>
        </g>
        <g transform="matrix(0.996875,0,0,0.996875,1,1)">
            <path d="M70,210L250,110" style="fill:none;stroke:black;stroke-width:5px;stroke-linecap:round;"/>
        </g>
        <g transform="matrix(0.996875,0,0,0.996875,1,1)">
            <path d="M70,210L250,110" style="fill:none;stroke:rgb(0,170,255);stroke-width:2px;stroke-linecap:round;"/>
        </g>
        <g id="path3995" transform="matrix(0.996875,0,0,0.996875,1,-729.074)">
            <path d="M185.25,888.801L207,845.363L178.688,859.363L179.5,865.801L193.625,858.738L182,882.176L185.25,888.801Z" style="fill:none;fill-rule:nonzero;stroke:black;stroke-width:4px;stroke-linejoin:miter;stroke-miterlimit:4;"/>
        </g>
        <g id="path3997" transform="matrix(0.996875,0,0,0.996875,1,-729.074)">
            <path d="M187.25,899.488L179.25,883.426L173.313,882.676L173.75,885.738L181.125,900.488L187.25,899.488Z" style="fill:none;fill-rule:nonzero;stroke:black;stroke-width:4px;stroke-linejoin:miter;stroke-miterlimit:4;"/>
        </g>
        <g id="path3999" transform="matrix(0.996875,0,0,0.996875,1,-729.074)">
            <path d="M163.625,877.113L166.75,878.676L179.438,880.488L181.938,875.238L170.563,873.676L163.625,877.113Z" style="fill:none;fill-rule:nonzero;stroke:black;stroke-width:4px;stroke-linejoin:miter;stroke-miterlimit:4;"/>
        </g>
        <g id="path39951" serif:id="path3995" transform="matrix(0.996875,0,0,0.996875,1,-729.074)">
            <path d="M185.25,888.801L207,845.363L178.688,859.363L179.5,865.801L193.625,858.738L182,882.176L185.25,888.801Z" style="fill-rule:nonzero;stroke:white;stroke-width:1.5px;stroke-linejoin:miter;stroke-miterlimit:4;"/>
        </g>
        <g id="path39971" serif:id="path3997" transform="matrix(0.996875,0,0,0.996875,1,-729.074)">
            <path d="M187.25,899.488L179.25,883.426L173.313,882.676L173.75,885.738L181.125,900.488L187.25,899.488Z" style="fill-rule:nonzero;stroke:white;stroke-width:1.5px;stroke-linejoin:miter;stroke-miterlimit:4;"/>
        </g>
        <g id="path39991" serif:id="path3999" transform="matrix(0.996875,0,0,0.996875,1,-729.074)">
            <path d="M163.625,877.113L166.75,878.676L179.438,880.488L181.938,875.238L170.563,873.676L163.625,877.113Z" style="fill-rule:nonzero;stroke:white;stroke-width:1.5px;stroke-linejoin:miter;stroke-miterlimit:4;"/>
        </g>
        <g id="path4001" transform="matrix(0.996875,0,0,0.996875,1,-729.074)">
            <path d="M171.563,870.738L177.313,871.613L160.25,752.863L145.375,857.988L150.563,860.551L160.25,792.738L171.563,870.738Z" style="fill:none;fill-rule:nonzero;stroke:white;stroke-width:1.5px;stroke-linejoin:miter;stroke-miterlimit:4;"/>
        </g>
        <g transform="matrix(0.996875,0,0,0.996875,30.9063,-14.95)">
            <g transform="matrix(1.02564,0,0,1,-1.79487,0)">
                <rect x="31" y="210" width="39" height="60" style="stroke:rgb(0,170,255);stroke-width:1.97px;stroke-linecap:round;"/>
            </g>
            <path d="M35,215L45,215" style="fill:none;stroke:rgb(0,170,255);stroke-width:2px;stroke-linecap:round;"/>
            <g transform="matrix(1,0,0,1,4,4)">
                <path d="M35,215L53,215" style="fill:none;stroke:rgb(0,170,255);stroke-width:2px;stroke-linecap:round;"/>
            </g>
            <g transform="matrix(1,0,0,1,4,8)">
                <path d="M35,215L47,215" style="fill:none;stroke:rgb(0,170,255);stroke-width:2px;stroke-linecap:round;"/>
            </g>
            <g transform="matrix(1,0,0,1,4,12)">
                <path d="M35,215L44,215" style="fill:none;stroke:rgb(0,170,255);stroke-width:2px;stroke-linecap:round;"/>
            </g>
            <g transform="matrix(1,0,0,1,4,16)">
                <path d="M35,215L51,215" style="fill:none;stroke:rgb(0,170,255);stroke-width:2px;stroke-linecap:round;"/>
            </g>
            <g transform="matrix(1,0,0,1,4,20)">
                <path d="M35,215L45,215" style="fill:none;stroke:rgb(0,170,255);stroke-width:2px;stroke-linecap:round;"/>
            </g>
            <g transform="matrix(1,0,0,1,0,28)">
                <path d="M35,215L48,215" style="fill:none;stroke:rgb(0,170,255);stroke-width:2px;stroke-linecap:round;"/>
            </g>
            <g transform="matrix(1,0,0,1,4,32)">
                <path d="M35,215L52,215" style="fill:none;stroke:rgb(0,170,255);stroke-width:2px;stroke-linecap:round;"/>
            </g>
            <g transform="matrix(1,0,0,1,4,36)">
                <path d="M35,215L39,215" style="fill:none;stroke:rgb(0,170,255);stroke-width:2px;stroke-linecap:round;"/>
            </g>
            <g transform="matrix(1,0,0,1,8,40)">
                <path d="M35,215L43,215" style="fill:none;stroke:rgb(0,170,255);stroke-width:2px;stroke-linecap:round;"/>
            </g>
            <g transform="matrix(1,0,0,1,8,44)">
                <path d="M35,215L47,215" style="fill:none;stroke:rgb(0,170,255);stroke-width:2px;stroke-linecap:round;"/>
            </g>
            <g transform="matrix(1,0,0,1,4,48)">
                <path d="M35,215L43,215" style="fill:none;stroke:rgb(0,170,255);stroke-width:2px;stroke-linecap:round;"/>
            </g>
        </g>
        <g transform="matrix(0.996875,0,0,0.996875,1,2.99375)">
            <circle cx="256" cy="104" r="6" style="stroke:rgb(0,170,255);stroke-width:2px;stroke-linecap:round;"/>
        </g>
        <g transform="matrix(0.332236,0.57545,-0.57545,0.332236,135.294,-21.3678)">
            <path d="M262,104C262,100.686 259.314,98 256,98C252.686,98 250,100.686 250,104C250,100.686 252.686,98 256,98C259.314,98 262,100.686 262,104Z" style="fill:none;stroke:black;stroke-width:7.5px;"/>
        </g>
        <g transform="matrix(0.332236,0.57545,-0.57545,0.332236,135.294,-21.3678)">
            <path d="M262,104C262,100.686 259.314,98 256,98C252.686,98 250,100.686 250,104C250,100.686 252.686,98 256,98C259.314,98 262,100.686 262,104Z" style="fill:none;stroke:rgb(0,170,255);stroke-width:3px;"/>
        </g>
        <g transform="matrix(0,0.664472,-0.664472,0,229.605,-9.60493)">
            <path d="M262,104C262,100.686 259.314,98 256,98C252.689,98 250,100.689 250,104C250,106.144 251.144,108.124 253,109.196C251.144,108.124 250,106.144 250,104C250,100.689 252.689,98 256,98C259.314,98 262,100.686 262,104Z" style="fill:none;stroke:rgb(0,170,255);stroke-width:3px;"/>
        </g>
    </g>
</svg>
